<?xml version="1.0" encoding="utf-8"?>
<!-- Generator: Adobe Illustrator 22.1.0, SVG Export Plug-In . SVG Version: 6.00 Build 0)  -->
<svg version="1.1" id="Layer_1" xmlns="http://www.w3.org/2000/svg" xmlns:xlink="http://www.w3.org/1999/xlink" x="0px" y="0px"
	 width="100px" height="100px" viewBox="0 0 100 100" style="enable-background:new 0 0 100 100;" xml:space="preserve">
<style type="text/css">
	.st0{opacity:0.19;enable-background:new    ;}
	.st1{fill:#FFFFFF;}
	.st2{fill:#F95B5B;}
</style>
<ellipse class="st0" cx="50.3" cy="92.9" rx="21.6" ry="6.8">
<animate  accumulate="none" additive="replace" attributeName="stop-color" calcMode="linear" dur="8s" fill="remove" repeatCount="indefinite" restart="always" values="#9C26F9; #FF1F13; #9C26F9">
	</animate>
<animate  accumulate="none" additive="replace" attributeName="stop-color" calcMode="linear" dur="8s" fill="remove" repeatCount="indefinite" restart="always" values="#7AD2FA; #DE93FF; #7AD2FA">
	</animate>
</ellipse>
<path class="st1" d="M71.3,8.9C65.4,3,58.6,0.4,50.3,0.4S35.3,3.4,29.4,8.9c-5.7,5.6-8.5,12.6-8.5,20.9c0,6.8,2.6,15.7,8.1,26.8
	s9.8,19.1,13,23.6C45.2,85.1,48,88.8,50,92l7.4-10.4c5-7,9.8-15.5,14.7-25.9c5-10.4,7.4-18.8,7.4-25.6C79.7,21.7,76.9,14.7,71.3,8.9
	z"/>
<path class="st2" d="M25.9,43.7L25.9,43.7L25.9,43.7L25.9,43.7z M28.1,38.7L28.1,38.7L28.1,38.7C28,38.8,28,38.8,28.1,38.7z
	 M27.7,39.6L27.7,39.6L27.7,39.6L27.7,39.6z M28.5,40.3L28.5,40.3L28.5,40.3L28.5,40.3z M28.1,38.6L28.1,38.6c0,0.1,0,0.1,0,0.1
	C28.2,38.7,28.2,38.6,28.1,38.6z M30.3,36.3c0.1-0.1,0.1-0.2,0.1-0.3l0-0.1l-0.1,0l-0.2,0.3l0.1,0.1L30.3,36.3z M27.3,41.5
	C27.3,41.5,27.3,41.5,27.3,41.5l0.1,0L27.3,41.5C27.3,41.5,27.3,41.5,27.3,41.5z M30.2,34.8C30.2,34.8,30.2,34.8,30.2,34.8
	c0.1,0,0.1,0,0.1-0.1C30.3,34.7,30.2,34.7,30.2,34.8z M28.5,38.7L28.5,38.7l0,0.3c0.1-0.1,0.1-0.2,0.1-0.2
	C28.6,38.8,28.6,38.7,28.5,38.7z M27.5,41c-0.1,0-0.2,0.1-0.1,0.2C27.5,41.1,27.5,41,27.5,41z M28.7,41.2l0.1-0.2
	C28.6,41.1,28.6,41.1,28.7,41.2z M27.8,40.3c-0.1,0.1-0.2,0.2-0.2,0.4C27.8,40.7,27.9,40.6,27.8,40.3z M28.4,39.3
	c0.1,0,0.1-0.1,0.2-0.2C28.4,39.1,28.4,39.1,28.4,39.3z M28.7,38.4L28.7,38.4c0-0.1,0-0.1,0-0.1C28.6,38.3,28.6,38.3,28.7,38.4z
	 M28,39.9c-0.1,0.1-0.2,0.2-0.2,0.4C28,40.3,28,40.1,28,39.9z M28,39.9c0.2,0,0.2-0.1,0.2-0.2c0.1,0,0.2-0.2,0.2-0.4
	c-0.1,0.1-0.2,0.2-0.2,0.4C28.1,39.7,28,39.8,28,39.9z M27,43.7L27,43.7L27,43.7L27,43.7z M27.6,41c0.1,0,0.1-0.1,0.1-0.2
	C27.6,40.8,27.6,40.8,27.6,41z M27.3,40.3L27.3,40.3L27.3,40.3L27.3,40.3z M26.1,43.1C26.1,43.1,26.1,43.1,26.1,43.1
	C26.1,43.1,26.2,43.1,26.1,43.1C26.1,43,26.1,43,26.1,43.1z M26,44.3c0.1,0,0.2-0.1,0.2-0.4C26,44,26,44.1,26,44.3z M26.3,43.7
	c-0.1,0-0.1,0.1-0.1,0.2C26.3,43.9,26.3,43.9,26.3,43.7z M26.3,45.4L26.3,45.4L26.3,45.4L26.3,45.4z M26.3,42.6
	C26.3,42.6,26.3,42.6,26.3,42.6C26.2,42.5,26.2,42.6,26.3,42.6C26.3,42.7,26.3,42.7,26.3,42.6z M25.9,43.4l0.1-0.1
	C25.9,43.2,25.9,43.3,25.9,43.4z M27.2,40.8c0-0.1,0.1-0.1,0-0.1C27.2,40.8,27.2,40.8,27.2,40.8z M26,44.6c0-0.1,0-0.2,0-0.2
	C25.9,44.4,25.9,44.5,26,44.6z M26.7,41.7c0,0,0,0.1-0.1,0.1C26.8,41.9,26.8,41.8,26.7,41.7z M27.1,42c-0.2,0-0.2,0.1-0.2,0.2
	C27.1,42.2,27.1,42.2,27.1,42z M27.2,41.9C27.2,41.9,27.1,41.9,27.2,41.9c-0.1,0-0.1,0-0.1,0.1L27.2,41.9
	C27.2,41.9,27.2,41.9,27.2,41.9z M26.3,43.7c0.3-0.2,0.4-0.5,0.4-1C26.4,42.9,26.3,43.2,26.3,43.7z M26.9,42.3
	c-0.1,0.1-0.2,0.2-0.2,0.4C26.9,42.6,26.9,42.5,26.9,42.3z M27,45.2L27,45.2L27,45.2C26.9,45.2,27,45.2,27,45.2z M26.9,41.3
	L26.9,41.3L26.9,41.3L26.9,41.3z M26.4,42.5c0.1,0,0.1-0.1,0.1-0.1C26.4,42.4,26.4,42.4,26.4,42.5z M26.6,41.9L26.6,41.9
	C26.6,42,26.7,41.9,26.6,41.9C26.7,41.9,26.6,41.9,26.6,41.9z M27.9,39.2L27.9,39.2L27.9,39.2L27.9,39.2z M35.7,21.1
	c0,0,0.1,0,0.1,0C35.8,21,35.8,21,35.7,21.1z M34.1,29.1C34.2,29.1,34.2,29.1,34.1,29.1l0-0.1C34.1,29,34.1,29,34.1,29.1
	C34.1,29.1,34.1,29.1,34.1,29.1z M36.3,20.1c0,0.1-0.1,0.3-0.1,0.6c-0.1,0.2-0.2,0.4-0.4,0.4c0,0.4,0,0.6,0,0.8l-0.1,0.2
	c0,0-0.1,0.1-0.1,0.1c-0.1,0-0.1,0.1-0.1,0.1c0,0.1,0,0.1,0,0.2c0,0.1,0,0.1,0,0.2c0,0.1,0,0.1,0,0.1c-0.3,0.4-0.4,0.8-0.4,1.1
	c0,0.2-0.1,0.4-0.2,0.5c-0.1,0.1-0.2,0.3-0.3,0.5c0,0,0,0.1-0.1,0.2c-0.1,0.1-0.1,0.2-0.2,0.2c-0.3,0.8-0.5,1.3-0.6,1.5
	c0,0.1,0,0.1,0,0.3c0,0.1,0,0.2-0.1,0.2c-0.2,0.1-0.3,0.3-0.4,0.6c-0.1,0.3-0.2,0.5-0.3,0.6c0,0.1,0.1,0.3,0,0.4
	c0,0.1-0.1,0.3-0.2,0.4c-0.1,0.1-0.2,0.2-0.2,0.3c0,0,0,0.1-0.1,0.2c-0.1,0.1-0.1,0.2-0.1,0.3c0,0.2,0,0.3-0.1,0.4l0,0
	C32,30.9,31.9,31,31.9,31c0,0,0,0.1-0.1,0.2c0,0.1,0,0.2-0.1,0.2c-0.1,0.1-0.2,0.2-0.2,0.3c0,0.2,0.1,0.3,0.2,0.3
	c0.4,0,0.7-0.1,0.8-0.4c0-0.1,0-0.1,0.1-0.2c0,0,0-0.1,0-0.1c0-0.1,0-0.1,0.1-0.2c0-0.1,0-0.1,0.1-0.2c0.1-0.1,0.2-0.3,0.3-0.6
	c0.1-0.3,0.2-0.5,0.3-0.5c0-0.2,0.1-0.4,0.2-0.7c0.2-0.3,0.2-0.5,0.3-0.6c0-0.1,0.1-0.3,0.2-0.6c0.1-0.2,0.2-0.4,0.2-0.5l0.4-1.2
	c0-0.1,0.1-0.3,0.2-0.5c0.1-0.2,0.2-0.3,0.2-0.5c0.1-0.6,0.3-1.3,0.8-2.4l0-0.1c0-0.1,0-0.2,0.1-0.2c0.1-0.3,0.2-0.7,0.3-1.2
	c0.1-0.6,0.2-1,0.3-1.2c0,0-0.1-0.1-0.2-0.2C36.4,19.9,36.4,20,36.3,20.1z M33,31.4C33.1,31.4,33.1,31.4,33,31.4l0.1-0.2L33,31.4
	L33,31.4z M35,26.7L35,26.7L35,26.7L35,26.7z M31,34.5l0,0.2C31.1,34.7,31.1,34.6,31,34.5z M29.8,36.1c0.1,0,0.1-0.2,0.1-0.4l-0.1,0
	L29.8,36.1z M30.9,34.8c-0.1,0-0.1,0.1-0.1,0.1L30.9,34.8z M26.8,17.4L26.8,17.4L26.8,17.4L26.8,17.4z M27.5,16.4L27.5,16.4
	L27.5,16.4L27.5,16.4z M28.4,15.6c0.1,0,0.1-0.1,0.1-0.1C28.4,15.5,28.4,15.5,28.4,15.6z M29.7,35.3l0.1,0c-0.1,0-0.1-0.1-0.1-0.1
	L29.7,35.3z M25.8,21.3c-0.4,0.5-0.7,0.9-0.8,1.2c-0.2,0.4-0.6,0.9-1.1,1.7l-0.2,0.3c-0.1,0.2-0.1,0.4-0.3,0.7
	c-0.1,0.2-0.3,0.4-0.4,0.7c-0.2,0.3-0.3,0.5-0.4,0.6c-0.1,0.2-0.3,0.4-0.5,0.9c-0.2,0.4-0.4,0.8-0.6,1c0,0.1,0,0.1-0.1,0.2
	c0,0.1-0.1,0.2-0.2,0.4c-0.1,0.2-0.2,0.3-0.2,0.4c0,0.1,0,0.2,0.1,0.3c0.1,0.1,0.1,0.2,0.2,0.3c0.1,0.1,0.1,0.2,0.2,0.2
	c0,0.1,0.1,0.1,0.1,0.2c0,0.1,0,0.2,0,0.3c0,0.1,0,0.2,0,0.2c0,0.1-0.1,0.2-0.3,0.2c-0.2,0-0.3,0-0.5-0.1c0.1,4.3,1.3,9.3,3.4,15.2
	c0.3-0.8,0.9-2.1,1.6-3.8c0.1-0.1,0.2-0.5,0.4-0.9c0.2-0.5,0.4-0.9,0.5-1.2c0.2-0.5,0.5-1.2,0.9-1.9c0-0.1,0.1-0.3,0.3-0.8
	c0.2-0.5,0.4-0.8,0.6-1c0-0.1,0.1-0.3,0.1-0.5c0.1-0.2,0.1-0.3,0.2-0.4c0.1-0.2,0.1-0.4,0.1-0.4c-0.3,0-0.4,0-0.5,0
	c-0.1,0.1-0.2,0.1-0.4,0.2c-0.2,0-0.3,0.1-0.5,0.1c-0.2,0-0.3,0.1-0.4,0.1c-0.2,0-0.4,0.1-0.6,0.1c-0.2,0.1-0.4,0.2-0.6,0.3
	c-0.3,0.1-0.5,0.3-0.7,0.4c-0.2,0.1-0.4,0.3-0.6,0.4c-0.2,0.1-0.5,0.1-0.8,0c-0.3,0-0.4-0.1-0.3-0.2c0.2-0.5,0.6-1,1.2-1.6
	c0.2-0.3,0.5-0.5,0.8-0.7c0.3-0.2,0.7-0.4,1.2-0.6s0.8-0.4,1-0.5c0.1,0,0.3,0,0.6-0.2s0.5-0.2,0.6-0.2c0.2,0,0.4,0,0.7-0.2
	c0.3-0.1,0.5-0.2,0.6-0.2c0.4-0.1,0.7-0.1,0.8-0.2c0.1-0.1,0.2-0.3,0.4-0.7c0.2-0.5,0.3-0.9,0.3-1.2c0-0.1,0-0.1-0.1-0.2
	c-0.1-0.1-0.1-0.1,0-0.2c0.4-0.3,0.6-0.6,0.7-0.9l0-0.2c-0.1,0-0.1,0-0.1-0.1c0,0,0,0,0,0l0.1,0.1c0.2-0.2,0.3-0.5,0.3-0.9
	c0,0,0-0.1,0-0.3c0-0.2,0.1-0.3,0.2-0.4c0.1,0,0.1-0.1,0.1-0.1c0-0.2,0.1-0.5,0.3-0.9c0.2-0.3,0.3-0.6,0.3-0.8c0-0.1,0-0.2,0.1-0.3
	c0-0.1,0.1-0.3,0.1-0.3c0.1-0.2,0.2-0.4,0.2-0.6c0.1-0.2,0.2-0.5,0.2-0.8c0.1-0.3,0.1-0.5,0.2-0.7c0.2-0.5,0.6-1.7,1.1-3.6l0-0.1
	c0,0,0-0.1,0.1-0.2c0-0.1,0-0.2,0.1-0.2c0,0,0.1,0,0.1-0.1l0.7-3.2c0.1-0.8,0.2-1.2,0.1-1.4c0-0.1,0-0.3,0-0.5c0-0.2,0.1-0.4,0-0.5
	c-0.1-0.5-0.1-0.9-0.1-1.1c0-0.1,0-0.2-0.1-0.3c-0.1-0.1-0.2-0.2-0.4-0.1c-0.5,0.1-0.9,0.2-1.1,0.4l-2.2,1.8
	c-0.2,0.2-0.6,0.6-1.1,1.1c-0.5,0.5-0.9,0.9-1.1,1.2c-0.1,0.1-0.2,0.2-0.4,0.3c0,0.1-0.1,0.1-0.2,0.2c-0.1,0.1-0.2,0.2-0.2,0.2
	c-0.1,0.1-0.2,0.3-0.4,0.4C29.2,17,29,17.1,29,17.2c-0.3,0.5-0.7,0.9-0.9,1l0,0c0,0,0,0.1-0.1,0.1c-0.1,0.1-0.2,0.2-0.2,0.4
	c-0.1,0.2-0.2,0.4-0.4,0.4c-0.3,0.2-0.5,0.4-0.6,0.7C26.6,20.3,26.3,20.7,25.8,21.3z M36.6,18.6l0,0.4l0,0.4l0,0.2
	c0,0,0-0.1,0.1-0.1c0,0,0.1-0.1,0.1-0.1c0.1-0.1,0.1-0.1,0.1-0.2c0-0.2,0.1-0.5,0.2-0.9c0.1-0.4,0.2-0.7,0.2-0.9c0-0.1,0-0.3,0-0.5
	c0,0,0,0,0,0c0,0-0.1,0-0.1,0l-0.1,0c0,0.1-0.1,0.1-0.1,0.2l-0.1,0.1c0.1,0.3,0,0.8-0.2,1.2C36.7,18.4,36.6,18.5,36.6,18.6z
	 M29.4,14.8c0-0.1,0-0.2,0-0.2C29.2,14.6,29.2,14.7,29.4,14.8z M29.4,14.5c0.1,0,0.2-0.1,0.2-0.1C29.4,14.4,29.4,14.4,29.4,14.5z
	 M29.6,14.2c0,0.1,0,0.1-0.1,0.1C29.7,14.3,29.7,14.2,29.6,14.2z M29.6,36.3c0.1,0,0.1-0.1,0.1-0.2C29.6,36.1,29.6,36.2,29.6,36.3z
	 M29.3,39.8c0,0,0,0.1-0.1,0.1C29.3,39.9,29.4,39.9,29.3,39.8z M29.5,35.7c-0.1,0-0.2,0.1-0.2,0.2C29.4,35.9,29.5,35.9,29.5,35.7z
	 M29.8,34.8c0,0.1,0.1,0.1,0.1,0.1C29.9,34.7,29.9,34.7,29.8,34.8z M29.2,40.1c0,0,0-0.1,0-0.1L29.2,40.1L29.2,40.1z M29.6,38.2
	C29.5,38.2,29.5,38.2,29.6,38.2L29.6,38.2L29.6,38.2z M29,40.6c0-0.1,0.1-0.1,0-0.1C28.9,40.5,28.9,40.5,29,40.6z M28.9,36.9
	L28.9,36.9L28.9,36.9C28.9,36.9,28.9,36.9,28.9,36.9z M28.8,41c0.1,0,0.1-0.1,0.1-0.4C28.8,40.6,28.8,40.8,28.8,41z M29.1,36.5
	c0-0.1,0-0.2,0-0.2C29,36.4,29,36.5,29.1,36.5z M28.8,38.2c0.3-0.1,0.4-0.3,0.3-0.6C28.8,37.7,28.7,37.9,28.8,38.2z M29.7,38.8
	L29.7,38.8l0.1,0.1C29.8,38.8,29.8,38.8,29.7,38.8L29.7,38.8z M29.9,37.5c0,0,0-0.1-0.1-0.1c0,0,0,0,0,0.1l0,0.2
	C29.8,37.6,29.9,37.6,29.9,37.5z M29.9,37.1L29.9,37.1l0-0.1C29.9,36.9,29.9,37,29.9,37.1C29.9,37,29.9,37,29.9,37.1z M29.6,35.3
	c-0.1,0.1-0.1,0.2-0.1,0.4l0.1,0L29.6,35.3z M29.2,36.4l0.2,0l-0.1-0.4C29.2,36,29.1,36.2,29.2,36.4z M30.2,34.9l-0.2,0
	c0,0.2,0,0.3-0.2,0.3l0.1,0.4c0.1,0,0.1,0,0.2-0.1C30.2,35.5,30.2,35.3,30.2,34.9z M29.3,36.6c0,0.1,0,0.2-0.1,0.2
	c-0.1,0.5-0.2,0.7-0.2,0.8c0.4-0.3,0.6-0.7,0.5-1.3l-0.2,0C29.4,36.4,29.4,36.5,29.3,36.6z M71.4,42.8c0,0,0-0.1,0-0.1
	c0-0.1,0-0.1,0-0.2l0-0.1l-0.2,0l0,0.1C71.2,42.7,71.3,42.8,71.4,42.8z M73.6,36c-0.1,0-0.2,0.2-0.2,0.4
	C73.5,36.4,73.6,36.3,73.6,36z M38.1,13.1l0,0.1L38.1,13.1L38.1,13.1z M38,13.8L38,13.8C38,13.8,38,13.7,38,13.8l0.1-0.1
	c0-0.1-0.1-0.1-0.2-0.2c-0.1-0.1-0.1-0.2-0.2-0.2l0,0l0,0C37.6,13.5,37.7,13.7,38,13.8z M53.3,29.3c0.1,0,0.3-0.1,0.6-0.2
	c0.3-0.1,0.5-0.1,0.6-0.2c0.5-0.3,1-0.5,1.3-0.7c1-0.4,1.8-1,2.6-1.8c0.4-0.3,0.7-0.7,0.9-1.3c0.1-0.1,0.1-0.3,0-0.6
	c0-0.1,0-0.3-0.3-0.4c-0.2-0.1-0.3,0-0.3,0.2c0,0.1-0.2,0.2-0.5,0.3c-1,0.2-1.8,0.6-2.4,1.1c-0.5,0.3-1.3,1-2.4,2.1l-1,1.2
	c-0.2,0.2-0.2,0.4-0.2,0.4l0.5-0.1C52.9,29.3,53.1,29.3,53.3,29.3L53.3,29.3z M37.8,12.8L37.8,12.8L37.8,12.8L37.8,12.8z M38,14.2
	L38,14.2L38,14.2L38,14.2z M73.8,33.1c-0.1,0.1-0.2,0.3-0.4,0.4c-0.2,0.1-0.3,0.3-0.4,0.4l-0.8,0.8c-0.4,0.3-0.7,0.6-0.8,0.9
	c-0.3,0.4-0.9,1.2-1.9,2.3c-0.6,0.8-1,1.4-1.2,1.8c-0.1,0.2-0.2,0.4-0.4,0.6c-0.2,0.3-0.6,0.9-1,1.8c0,0.3-0.1,0.5-0.3,0.5
	c-0.2,0.2-0.3,0.3-0.3,0.5c0,0.2-0.1,0.4,0,0.7c0,0.3,0,0.5,0,0.6l0.1,0.1c0.1,0.1,0.1,0.1,0.1,0.2c0,0,0.1,0,0.2,0.1
	c0.1,0.1,0.2,0.1,0.2,0.1c0.6,0,1.1-0.3,1.5-0.7c1.4-1.5,2.5-3,3.1-4.6c0.2-0.4,0.3-0.6,0.5-0.6c0-0.4,0.1-0.6,0.4-0.8l0-0.2
	c0.3-0.9,0.6-1.6,0.8-2.2c0.4-1,0.6-1.5,0.6-1.6c0.1-0.5,0.3-0.8,0.5-1.1C74.2,33,74,33,73.8,33.1z M72.9,37.7L72.9,37.7
	c-0.1,0-0.2,0.1-0.2,0.3c0.2,0,0.3-0.1,0.3-0.1C73.1,37.9,73,37.8,72.9,37.7z M73.6,36l0.2,0c0,0.2,0.1,0.2,0.1,0.1
	c-0.1,0-0.1-0.1-0.2-0.4C73.6,35.7,73.5,35.8,73.6,36z M72.9,37.6c0.1,0,0.2-0.2,0.1-0.5C72.9,37.2,72.9,37.4,72.9,37.6z M32.1,12
	c0.2,0,0.4-0.1,0.4-0.3C32.2,11.8,32.1,11.9,32.1,12z M72.8,38.1l-0.4,0.2c0,0.2-0.1,0.5-0.3,0.7C72,39,72,39.2,72,39.3
	c-0.6,1.4-1.3,2.7-2,3.7c-0.1,0.1-0.3,0.4-0.6,0.8c-0.3,0.4-0.5,0.7-0.7,0.9c-0.2,0.2-0.4,0.4-0.5,0.6l0.2,0
	c0.5-0.5,0.9-0.8,1.1-1.1c0.1-0.3,0.4-0.5,0.7-0.5c0.1,0,0.1-0.1,0.1-0.2c0,0-0.1,0-0.1-0.1l-0.1,0l0.3-0.3c0-0.1,0.1-0.1,0.1-0.2
	c0.1-0.1,0.1-0.2,0.1-0.2c0,0.1,0.1,0.1,0.3,0l0.2-0.1c0,0,0-0.1-0.1-0.2c-0.1-0.1-0.1-0.2,0-0.2c0-0.2,0.1-0.3,0.1-0.3s0.2,0,0.4,0
	l0-0.5c0.1-0.2,0.2-0.5,0.4-0.9c-0.2-0.1-0.2-0.2,0-0.2c0-0.1,0-0.2,0.1-0.2c0,0,0.1-0.1,0.2-0.2c0.1,0,0.2-0.1,0.2-0.1l0-0.4
	c0.2-0.2,0.3-0.4,0.2-0.5c0-0.2,0-0.3,0-0.3C72.9,38.4,72.9,38.2,72.8,38.1z M72.6,40.1c0.1,0,0.2-0.2,0.2-0.4l-0.2,0L72.6,40.1z
	 M44,32.3c-0.1,0.1-0.1,0.1-0.1,0.2C44,32.4,44,32.4,44,32.3z M41.9,33.7L41.9,33.7c-0.3,0-0.4,0.1-0.5,0.4l-0.8,2.2
	c-0.1,0.2-0.2,0.6-0.3,1.1c-0.1,0.5-0.3,0.9-0.4,1.1c0,0.1-0.1,0.3-0.1,0.5c-0.1,0.2-0.1,0.4-0.1,0.6c0,0.2,0,0.4-0.1,0.7
	c-0.1,0.3-0.1,0.5-0.1,0.6l0,0.3c-0.1,0.3-0.1,0.5-0.1,0.6c-0.1,0.3-0.1,0.7-0.1,1.2c0,0.5,0,0.9-0.1,1.1c0,0.1,0.1,0.2,0.1,0.2
	l0,0.1c0.1,0,0.1,0,0.1-0.1c0-0.1,0-0.2,0.1-0.4c0-0.2,0.1-0.4,0-0.5c0-0.3,0.1-0.6,0.2-0.9c0.1-0.3,0.1-0.4,0.1-0.5
	c0-0.1,0-0.2,0.1-0.5c0-0.3,0.1-0.5,0.1-0.7c0.1-0.2,0.2-0.7,0.4-1.5c0.2-0.8,0.4-1.3,0.5-1.7c0.3-0.6,0.5-1.2,0.6-1.8
	c0.2-0.9,0.4-1.5,0.7-1.8c0-0.1,0-0.2,0-0.2C42.1,33.8,42,33.8,41.9,33.7z M79.6,27.9c0,0.7,0.1,1.4,0.1,2.2
	c0,6.8-2.5,15.2-7.4,25.6c-5,10.4-9.8,18.9-14.7,25.9L50,92c-2-3.1-4.8-6.8-8.1-11.6c-3.3-4.5-7.6-12.4-13-23.6
	c-1.3-2.7-2.4-5.2-3.4-7.6c0.1-0.1,0.1-0.2,0.2-0.2c0.2-0.2,0.4-0.5,0.5-1c0.1-0.3,0.1-0.6,0-0.8l0.2-0.2c0,0.1,0.1,0.2,0.1,0.1
	c0,0-0.1,0-0.1,0l0,0c-0.2-0.6-0.1-1,0.2-1.3l0.1,0l0.1,0.1l0.1,0.4c-0.1,0.1-0.1,0.2,0,0.2c0,0,0-0.1,0-0.1l0-0.1
	c0.2-0.1,0.3-0.3,0.5-0.5c0.1-0.3,0.2-0.4,0.2-0.5c0.1-0.1,0.1-0.2,0.1-0.4c0-0.2,0-0.3,0-0.3s0-0.1,0-0.2c0-0.1,0-0.2,0-0.2
	c-0.2-0.1-0.3-0.2-0.2-0.5c0.1-0.3,0.3-0.5,0.5-0.6c0,0.3,0,0.5-0.1,0.6c-0.1,0.1-0.2,0.3-0.1,0.5c0.3-0.2,0.5-0.6,0.6-1.1l-0.1-0.1
	c0,0-0.1,0-0.1,0.1c-0.1,0-0.1,0.1-0.2,0.1c0-0.2,0-0.4,0-0.4c0.1-0.4,0.3-0.7,0.5-0.8c0,0.3,0,0.6-0.1,0.7l0.2,0.1l0,0
	c0,0,0.1-0.1,0.1-0.2c0-0.1,0.1-0.2,0.1-0.2c0-0.1,0.1-0.1,0.2-0.3c0.1-0.1,0.2-0.2,0.2-0.4c0-0.1,0.1-0.2,0-0.3
	c0.2-0.1,0.4-0.4,0.5-1l0.2-0.3c0-0.1,0.1-0.3,0.2-0.5c0.1-0.2,0.2-0.3,0.2-0.4l0.4-0.8c-0.1-0.2-0.1-0.3,0-0.5l0.2-0.2
	c0-0.1,0-0.1,0.1-0.2c0-0.1,0-0.2,0.1-0.2c0,0-0.1-0.1-0.2-0.1l-0.1,0.1c0,0.3-0.1,0.5-0.3,0.5c0-0.3,0-0.6,0.1-0.7
	c0.1,0,0.1-0.1,0.2-0.3c0-0.1,0.1-0.2,0.2-0.3c0.1,0,0.1-0.1,0.1-0.3c0-0.2,0-0.3,0-0.3l0.3-0.2c0,0.1,0,0.1,0.1,0.1l0.1,0.2l0.1,0
	c0.1,0,0.1,0,0.1,0c0-0.1,0-0.1,0-0.2c0-0.2-0.1-0.3-0.3-0.2l-0.2,0c0,0,0-0.1-0.1-0.1c0-0.1-0.1-0.1-0.1-0.2c0,0,0.1-0.1,0.2-0.1
	c0,0,0.1-0.1,0.2-0.4c0.1-0.2,0.2-0.2,0.4-0.3l3.6-0.5c1.5-0.2,2.5-0.3,2.9-0.2c0.3-0.1,0.7-0.1,1.3,0c0.5,0.1,0.9,0.1,1.1,0.1
	l0,0.1c-0.1,0.2-0.2,0.6-0.4,1.1c-0.1,0.5-0.3,0.9-0.4,1.2c-0.1,0.1-0.1,0.4-0.2,0.7c-0.1,0.3-0.1,0.5-0.2,0.6
	c-0.1,0.3-0.3,0.8-0.4,1.4c-0.2,0.6-0.3,1-0.3,1.2c0,0.2-0.1,0.5-0.1,0.7c0,0.1,0,0.1,0,0.3c0,0.1,0,0.2,0,0.3c0,0.1,0,0.2,0,0.3
	c0,0,0,0.2,0,0.4c0,0.2,0,0.4-0.1,0.5c-0.1,1,0,1.7,0.1,2.1c0.2,0.7,0.4,1.1,0.7,1.2c0,0.1,0.1,0.3,0.3,0.4c0.1,0.1,0.2,0.2,0.3,0.3
	s0.2,0.2,0.3,0.3c0.3,0.1,0.5,0.1,0.8-0.1l0.7-0.7c0,0,0,0,0-0.1c0-0.1,0-0.1-0.1-0.2c-0.1-0.2-0.2-0.2-0.3-0.1
	c-0.1,0.1-0.4,0.1-1,0.2c-0.2,0-0.2,0-0.1-0.2c0.1-0.2,0-0.6,0-1.3c0-0.1,0-0.3,0.1-0.5c0-0.2,0.1-0.6,0.2-1.2
	c0-0.1-0.1-0.2-0.1-0.2c-0.1,0-0.2-0.2-0.3-0.5c0-0.2,0.1-0.6,0.2-1c0.1-0.4,0.2-0.8,0.2-1c0.2,0,0.2-0.1,0.1-0.2
	c-0.1-0.1-0.1-0.1-0.1-0.2l0.3,0c0-0.1,0.1-0.2,0.2-0.4c0.1-0.2,0.1-0.4,0.2-0.5c0,0,0-0.1,0-0.2c0-0.1,0-0.1,0-0.2l0.2-0.2
	c-0.1-0.4,0.1-0.8,0.4-1.1c0.3-0.3,0.4-0.6,0.5-1c0.1,0,0.2,0,0.2-0.1l0.2-0.1c-0.1,0-0.1,0-0.1-0.1c-0.1,0-0.1,0-0.2,0.1l-0.1,0.1
	c-0.1,0-0.2-0.1-0.2-0.2c0-0.1,0.1-0.2,0.3-0.4s0.2-0.4,0.1-0.5c0.1-0.1,0.2-0.2,0.3-0.4c0.1-0.2,0.2-0.3,0.2-0.4
	c0.2-0.3,0.2-0.5,0.1-0.7c0.1-0.1,0.2-0.2,0.4-0.3c0.1,0,0.2,0,0.3,0c0-0.1,0.1-0.2,0.1-0.4c0.1-0.2,0.1-0.3,0.2-0.4L44,32.3
	c0-0.2,0-0.3,0-0.3c0.2-0.4,0.3-0.7,0.4-0.9c0-0.3,0.2-0.4,0.4-0.5c0.1,0,0.1-0.1,0.1-0.1c-0.1-0.1-0.1-0.2,0-0.4
	c0.2-0.3,0.3-0.6,0.3-0.7c0,0,0.1-0.2,0.2-0.5s0.2-0.4,0.3-0.5c0.1-0.1,0.2-0.2,0.1-0.4c0-0.1,0.2-0.4,0.4-0.9
	c0.2-0.2,0.3-0.5,0.3-0.9c0,0,0-0.1,0.1-0.2c0,0,0,0,0,0.1c0,0,0,0,0,0.1c0,0.1,0,0.1,0.1,0c0,0-0.1-0.1-0.1-0.1
	c0.1-0.2,0.2-0.3,0.2-0.4c0.3-0.4,0.4-0.8,0.4-1c0-0.1,0-0.2,0.1-0.2l0.4-0.7c0.3-0.3,0.4-0.5,0.5-0.6c0-0.1,0.1-0.2,0.2-0.4
	c0.1-0.2,0.2-0.3,0.2-0.4c0-0.2,0.1-0.3,0.2-0.3c0.2-0.1,0.4-0.4,0.6-0.8c0-0.1,0.1-0.3,0.2-0.5s0.2-0.4,0.2-0.4
	c0.1-0.5,0.3-0.9,0.6-1.2c0.3-0.4,0.5-0.8,0.6-1.1c0,0,0-0.1,0-0.2c0-0.1-0.1-0.1-0.1-0.2s-0.1-0.1-0.2-0.2
	c-0.1-0.1-0.2-0.2-0.2-0.2c0,0-0.1-0.1-0.2-0.1c-0.1-0.1-0.2-0.1-0.3-0.1c-0.1,0-0.2,0-0.3,0.1c-0.1,0-0.2,0-0.3-0.1
	c-0.2,0-0.4,0-0.5,0.1c-0.3,0.1-0.4,0.2-0.5,0.2c-0.2,0-0.4,0.1-0.5,0.3c-0.1,0.2-0.2,0.3-0.2,0.5c-0.1,0.3-0.5,1.1-1.3,2.5
	c-0.1,0.2-0.3,0.5-0.5,1c-0.3,0.5-0.4,0.8-0.6,1.1c-0.1,0.1-0.3,0.5-0.7,1.3c-0.4,0.7-0.7,1.3-0.9,1.7c0,0.1-0.1,0.2-0.2,0.4
	c-0.1,0.2-0.1,0.4-0.2,0.5c-0.1,0.2-0.2,0.5-0.3,0.8c-0.2,0.4-0.3,0.6-0.3,0.7L43,28.5c-0.1,0.3-0.2,0.6-0.4,1.1
	c-0.2,0.5-0.3,0.8-0.4,1l-0.2,0.3c-0.1,0.2-0.2,0.2-0.4,0.2C41.2,31,40.9,31,40.4,31c-0.3,0-0.6,0-1.1,0.1l-0.5,0.1
	c-0.1-0.1-0.5-0.1-1.1,0L35,31.5c-0.4,0-0.6,0.1-0.6,0.1c-0.1,0.1-0.2,0.1-0.4,0.1c-0.2,0-0.3,0-0.3,0l-0.2-0.1
	c-0.1,0,0-0.1,0.1-0.1c0.2-0.2,0.3-0.3,0.3-0.3c0.1,0,0.1-0.1,0.1-0.2c0-0.1,0-0.2-0.1-0.3c-0.2-0.2-0.3-0.3-0.2-0.6
	c0.1-0.2,0.2-0.4,0.5-0.6c0.2-0.1,0.3-0.4,0.5-0.8c0-0.1,0.1-0.2,0.1-0.3c0.2-0.6,0.4-0.9,0.6-1c0.1-0.1,0.1-0.2,0-0.4l0.1-0.1
	c0,0,0.1-0.1,0.1-0.1c0,0,0.1-0.1,0.1-0.1c0.1-0.1,0-0.3-0.2-0.4c-0.1-0.1-0.1-0.1-0.1-0.2c0.2,0,0.3-0.2,0.4-0.4
	c0.1-0.2,0.2-0.3,0.3-0.3l0-0.1c0-0.1-0.1-0.1-0.1-0.1c-0.2,0-0.2,0-0.2,0c0-0.2,0-0.3,0-0.4c0.2,0.1,0.3,0,0.5-0.3
	c0.2-0.3,0.3-0.5,0.3-0.5l0.2-0.5c0-0.1,0-0.1-0.1-0.2l-0.1-0.1c0,0,0.1-0.1,0.1-0.1c0.1,0,0.1-0.1,0.1-0.1c0,0,0-0.1,0-0.1l0.4-0.9
	l-0.1,0c0-0.1,0-0.1-0.1-0.2c0.1-0.2,0.2-0.4,0.5-0.8l0,0l0.1-0.1l0.2-0.4c-0.1-0.4-0.1-0.7,0.1-1.1c0.1-0.2,0.2-0.4,0.3-0.8
	c0.1-0.1,0.1-0.2,0.1-0.3c0-0.1,0-0.1,0-0.3c0-0.1,0-0.2,0-0.2c0-0.1,0-0.2,0-0.3c0-0.1,0.1-0.3,0.2-0.7c0.1-0.4,0.2-0.7,0.4-0.8
	l0-0.1c0-0.1,0-0.1,0-0.1c-0.1-0.4,0-0.7,0-1c0-0.1,0-0.3-0.2-0.6c0-0.1,0-0.2,0-0.3c0-0.2,0-0.3,0-0.4c0,0,0-0.1-0.1-0.1
	c-0.1-0.1-0.2-0.3-0.3-0.5c0-0.2-0.1-0.4-0.2-0.5c0-0.2-0.1-0.6-0.4-1.1c-0.2-0.3-0.4-0.6-0.7-0.8c-0.3-0.3-0.7-0.4-1-0.5
	c-0.6-0.2-0.9-0.3-0.9-0.3c-0.4,0-0.7,0.1-1,0.3c-0.5,0.3-0.7,0.5-0.8,0.6c-0.2,0-0.3,0.1-0.5,0.2c0,0-0.1,0.1-0.2,0.1l0,0.2
	l0.5-0.1c-0.1,0.2-0.3,0.3-0.7,0.5c0-0.1,0-0.2-0.1-0.2c0-0.1-0.1-0.2-0.2-0.1c0,0-0.1,0-0.2,0.1c-0.1,0.1-0.1,0.1-0.2,0.1
	c-0.1,0.1,0,0.2,0.2,0.3c0,0.1-0.1,0.2-0.1,0.2c-0.4,0.4-0.6,0.6-0.7,0.7L31,13l0-0.2l-0.4,0.1l0,0.1c-0.5,0.3-0.7,0.5-0.8,0.6
	c-0.7,0.6-1.5,1.5-2.5,2.7c-0.1,0.2-0.2,0.3-0.4,0.4c-0.7,0.5-1.1,1-1.3,1.6c-0.1,0-0.1,0.1-0.1,0.1c-0.6,0.7-0.9,1.2-1,1.4
	c-0.2,0.3-0.4,0.5-0.4,0.5c-0.1,0.1-0.2,0.2-0.3,0.4c-0.1,0.2-0.3,0.3-0.4,0.4c0,0.1-0.1,0.2-0.1,0.3c-0.1,0.1-0.1,0.2-0.2,0.3
	c-0.1,0.1-0.2,0.1-0.3,0.2c0,0.1-0.1,0.3-0.3,0.6c-0.2,0.2-0.3,0.4-0.3,0.5c0,0.1-0.1,0.3-0.3,0.5c-0.2,0.2-0.2,0.4-0.3,0.5
	c-0.1,0.1-0.2,0.3-0.3,0.5c1-6,3.7-11.1,8.1-15.4c5.9-5.6,12.7-8.5,20.9-8.5c8.2,0,15.1,2.6,20.9,8.5c3.3,3.4,5.6,7.2,6.9,11.4
	c-0.1,0-0.2,0.1-0.3,0.1c-0.2,0-0.3,0.1-0.4,0.2c-0.1,0.1-0.2,0.2-0.2,0.4c0,0.1-0.1,0.1-0.2,0.2c-0.1,0.1-0.2,0.1-0.2,0.1L75,22.8
	c-2.2,1.8-3.3,2.8-3.4,2.9c-0.8,0.6-1.4,1.2-1.8,1.6c-0.1,0-0.3,0.2-0.9,0.4c0,0-0.1,0-0.2-0.1c0-0.1,0.1-0.4,0.3-1.1
	c0.5-1.4,0.9-2.2,1.1-2.5c0-0.1,0.1-0.1,0.1-0.2c0-0.1,0.1-0.2,0.1-0.2c0.1-0.2,0.1-0.5,0-0.9c-0.1-0.2-0.2-0.3-0.5-0.4
	c-0.2,0-0.4,0-0.5,0.1c-0.1,0.1-0.3,0.4-0.7,0.8c-0.6,1-1.1,1.9-1.3,2.9c-0.3-0.2-0.6-0.2-1,0c-0.3,0.3-0.6,0.5-0.9,0.7
	c-0.1,0-0.2,0.1-0.5,0.2c-0.3,0.1-0.5,0.2-0.6,0.4c-0.4,0.2-1,0.6-1.9,1.1c-0.8,0.5-1.5,0.9-1.9,1.1c-0.3,0.1-0.5,0.3-0.5,0.3
	c-0.4,0.2-0.8,0.5-1,0.8C58.9,31,58.8,31,58.8,31c0,0-0.1,0-0.2-0.1c-0.8,0.6-1.5,1-1.9,1.3c-0.2,0.1-0.5,0.2-0.9,0.5
	c-0.4,0.3-0.8,0.4-1.1,0.5c-1.3,0.5-2.1,0.8-2.5,0.8c-0.2,0.1-0.6,0.1-1.4,0.1c-0.3-0.1-0.5-0.3-0.4-0.7c0.1-0.3,0.2-0.7,0.3-1
	s0.4-0.7,0.6-1.2c0.3-0.5,0.4-0.8,0.5-0.9c0.1-0.1,0.2-0.2,0.3-0.2c0.2,0,0.5,0,1-0.1c0.4,0,0.7,0,0.9,0c0.6-0.1,1-0.2,1.2-0.3
	c1.5-0.4,2.7-1.1,3.6-2l0.5-0.4c0.2-0.1,0.4-0.3,0.6-0.5c0.2-0.2,0.3-0.4,0.5-0.8c0.2-0.4,0.3-0.6,0.3-0.7c0.4-0.5,0.3-1-0.1-1.6
	c-0.3-0.4-0.6-0.7-0.8-0.8c0,0-0.2-0.1-0.5-0.1c-0.1,0-0.1-0.1-0.2-0.1c-0.1,0-0.1,0-0.2,0c-0.5-0.2-1-0.1-1.4,0.3
	c-0.1,0.1-0.3,0.2-0.6,0.3s-0.5,0.2-0.6,0.3c-0.6,0.2-1,0.4-1.4,0.8c-1.1,0.8-2.2,1.8-3.3,3.2c-1.1,1.2-1.9,2.5-2.4,4L49,32.2
	c0,0.6,0,1.1,0.2,1.8c0.3,0.6,0.6,1,1,1.3c0.3,0.3,0.7,0.4,1.1,0.5c1,0.2,1.7,0.2,2.2-0.1c0.1-0.1,0.2-0.2,0.5-0.4
	c1.4-0.4,2.6-1,3.8-1.9c0.9-0.6,1.7-1.1,2.5-1.5c0.2-0.2,0.6-0.4,1.2-0.7c0.6-0.3,1-0.6,1.3-0.9c0,0,0.1-0.1,0.2-0.1
	c0.1,0,0.1-0.1,0.2-0.1c0.2-0.1,0.7-0.4,1.3-0.7s1.2-0.6,1.5-0.9c0.3-0.2,0.6-0.3,0.9-0.5c0,0.4,0.1,0.8,0.3,1.2
	c0.2,0.3,0.5,0.5,0.8,0.6s0.7,0.1,1-0.1c0.9-0.4,1.7-0.9,2.5-1.6c0.5-0.4,1.2-1.1,2.2-1.8c1-0.8,1.7-1.4,2.1-1.8c0,0,0.1,0,0.2-0.1
	l0.1-0.1l0.2,0.1c0,0.1,0,0.1,0,0.2c0,0.1,0,0.1,0,0.1c-0.7,2.7-1.2,4.6-1.4,5.6c-0.1,0.4-0.2,0.7-0.5,0.9c-0.3,0.1-0.4,0.2-0.4,0.4
	c0.1,0,0.1,0,0.2,0.1c0.1,0,0.1,0.1,0.2,0.1l0,0.1c0,0.1,0,0.1-0.1,0.1L74,32.4c-0.3,0.1-0.4,0.2-0.5,0.3c-0.2,0.2-0.4,0.4-0.8,0.6
	c-0.1,0-0.1,0.1-0.2,0.1l-0.2,0.1c0,0.2-0.3,0.5-0.8,0.8l0-0.4c-0.2,0.1-0.3,0.2-0.3,0.4l0.4,0c-0.1,0.4-0.3,0.7-0.7,0.8
	c0-0.1,0.1-0.2,0.1-0.3c0.1-0.2,0.1-0.3,0.2-0.4c0,0-0.1,0-0.2,0c-0.1,0-0.1,0-0.1,0.1c-0.4,0.4-0.6,0.7-0.7,0.8l0.4-0.1
	c0-0.1,0-0.1,0.1-0.1c0,0.1,0,0.2-0.1,0.2c-0.2,0.4-0.5,0.6-0.7,0.7l-0.2,0.3c0-0.1,0.1-0.2,0.1-0.3l0-0.1l-0.2,0
	c-0.5,0.4-0.8,0.8-0.8,1.1l0.4-0.1c0,0.1-0.1,0.2-0.4,0.5c-0.1,0.2-0.2,0.3-0.3,0.4c0-0.1-0.1-0.2-0.2-0.3c-0.1,0-0.2,0.1-0.3,0.3
	c-0.5,0.6-1.2,1.6-2,2.9c-0.1,0.1-0.2,0.3-0.3,0.6c-0.1,0.2-0.2,0.5-0.3,0.7c-0.1,0.2-0.1,0.4-0.2,0.6c-0.4,0.5-0.4,1.1,0,1.9
	l0.6,1.2c0.5,0.8,1.2,1.1,2,1.1c0.6,0.1,1.2-0.2,1.8-0.7c0.1-0.2,0.3-0.4,0.6-0.7c0.2-0.3,0.4-0.5,0.5-0.6l0.4-0.5l0.4-0.7
	c0.3-0.3,0.4-0.5,0.4-0.6c-0.1-0.2,0-0.3,0.1-0.4c0.2-0.1,0.3-0.2,0.3-0.3c0,0,0-0.1,0.1-0.2c0-0.1,0.1-0.2,0.1-0.2
	c0-0.5,0.2-0.9,0.4-1c0.2-0.1,0.3-0.3,0.3-0.5c0.2-0.5,0.3-0.8,0.5-0.9c0.1,0,0.1-0.1,0.1-0.2c0-0.1,0.1-0.2,0.1-0.2
	c0-0.1,0-0.3,0.1-0.4c0-0.2,0-0.3,0-0.3c0.1,0,0.1-0.1,0.2-0.2c0.1-0.1,0.1-0.2,0.1-0.2c0-0.1,0-0.2,0.1-0.3c0-0.1,0-0.2,0.1-0.3
	c0.1-0.1,0.1-0.2,0.2-0.4c0-0.2,0.1-0.3,0.1-0.4c0,0,0.1-0.2,0.2-0.4c0.1-0.2,0.2-0.4,0.2-0.5c0-0.1,0-0.3,0-0.4
	c0.2-0.2,0.3-0.5,0.5-1c0.1-0.4,0.2-0.7,0.3-0.8c0.2-0.2,0.3-0.5,0.2-0.8l0-0.2c0.1-0.1,0.1-0.3,0.2-0.5c0.1-0.2,0.2-0.5,0.3-0.7
	c0.1-0.2,0.2-0.4,0.4-0.5c0.1,0,0.2-0.2,0.2-0.4c0.2,0,0.4-0.1,0.4-0.3c0,0,0.1,0,0.1,0c0.2,0,0.3,0,0.3-0.2l-0.3-0.2l0.2,0l0,0.1
	c0.1,0,0.2,0,0.2,0c0.1,0,0.1,0,0.1-0.1l-0.1-0.1l-0.2,0c0-0.1-0.1-0.2-0.3-0.2c0-0.2,0.2-0.3,0.4-0.3c0.1,0.2,0.2,0.2,0.4,0.2
	l0-0.2l-0.4,0c0-0.1,0.2-0.2,0.3-0.2l0-0.2c-0.2,0-0.5,0.2-1,0.5l-0.2,0c-0.1,0-0.2,0-0.2-0.2c0.1-0.2,0.2-0.6,0.3-1
	c0.1-0.4,0.2-0.8,0.3-1c0.5-1.9,0.9-3.2,1.1-3.9c0-0.1,0-0.1,0.1-0.2c0.4,1.6,0.6,3.3,0.7,5.1c-0.3,0.1-0.7,0.3-1.1,0.7
	C79,28.4,79.3,28.2,79.6,27.9z M73.3,32.3c0.2,0,0.4-0.1,0.5-0.4C73.5,31.9,73.3,32,73.3,32.3z M72.7,32.8c0.2,0,0.4-0.1,0.6-0.4
	C73,32.4,72.8,32.5,72.7,32.8z M72,33.4l0.4-0.1c0.1-0.2,0.1-0.3,0.2-0.3C72.3,33,72.1,33.1,72,33.4z M71.5,33.7
	c0.3,0,0.4,0,0.4-0.3C71.8,33.5,71.7,33.6,71.5,33.7z M68.5,37.3l0.3,0l0-0.4C68.6,36.9,68.5,37,68.5,37.3z M30.5,12.8
	c0-0.1-0.1-0.1-0.1,0C30.4,12.8,30.5,12.8,30.5,12.8z M31.2,12.4c0,0.1,0,0.1,0,0.1l-0.1,0l0,0.1c-0.1,0-0.2,0.1-0.1,0.1
	c0.1,0,0.2-0.1,0.1-0.1l0.1,0l0-0.1C31.3,12.5,31.3,12.4,31.2,12.4z M50.6,25.6l0.2,0L50.6,25.6L50.6,25.6z M40.6,42L40.6,42
	c-0.1,0-0.1,0-0.2,0.1c0,0,0,0.1,0.1,0.1c0,0,0,0,0.1,0.1C40.6,42.2,40.7,42.1,40.6,42z M31.5,36.3l-0.1-0.2c-0.1,0-0.1,0-0.1,0.1
	c-0.1,0.1-0.1,0.2-0.2,0.3c0.1,0,0.1,0,0.1,0l0.1,0C31.4,36.6,31.5,36.5,31.5,36.3z M79.4,28.6l-0.1,0c0,0.1-0.2,0.2-0.4,0.1
	c-0.2-0.1-0.4-0.1-0.4-0.1l0,0.2c0,0.1,0.1,0.2,0.2,0.2l-0.2,0l0,0.2c0,0.1,0,0.1,0.1,0.2l0.1-0.1l0-0.1l0-0.2l0,0
	c0.3,0,0.5-0.1,0.6-0.2C79.4,28.8,79.5,28.7,79.4,28.6z M40.9,38.5c0,0.1,0,0.1,0.1,0.1c0.1,0,0.1,0,0.1,0l0-0.2
	C40.9,38.3,40.9,38.4,40.9,38.5z M30.3,38.1L30.3,38.1c0,0.1,0,0.1,0,0.1C30.3,38.2,30.3,38.1,30.3,38.1L30.3,38.1z M41,38.1
	c0,0.1,0,0.1-0.1,0.2C41.1,38.2,41.1,38.2,41,38.1z M45.7,25.3c0.2-0.2,0.2-0.4,0.2-0.7c0,0.1-0.1,0.1-0.2,0.1
	c-0.2,0.4-0.4,0.7-0.4,0.9c0,0.2-0.1,0.3-0.3,0.5c-0.2,0.1-0.3,0.3-0.3,0.4c-0.1,0.2-0.3,0.4-0.4,0.8c-0.1,0.4-0.2,0.6-0.4,0.7
	c0,0,0,0.1,0,0.1c0,0.1,0,0.1,0,0.1c0,0.3-0.1,0.5-0.3,0.7c-0.1,0-0.1,0.2-0.2,0.4c-0.2,0.5-0.3,0.8-0.5,1c-0.1,0.1-0.1,0.2-0.2,0.5
	c-0.1,0.2,0,0.4,0.2,0.5c0.1,0.1,0.2,0.1,0.2,0c0-0.1,0.1-0.2,0.2-0.5c0.1-0.2,0.2-0.6,0.5-1.1c0.3-0.5,0.4-0.9,0.5-1.2
	C44.6,27.8,45,26.8,45.7,25.3z M40.9,39l-0.1,0C40.8,39,40.8,39,40.9,39z M45.9,24.5C45.9,24.5,45.9,24.5,45.9,24.5l-0.1,0.1
	C46,24.6,46,24.6,45.9,24.5z M40.3,42.8C40.3,42.8,40.3,42.8,40.3,42.8l-0.1,0.2C40.3,42.9,40.4,42.8,40.3,42.8z M25.8,48.1
	L25.8,48.1L25.8,48.1C25.7,48.1,25.8,48.1,25.8,48.1z M30.3,37.6c0.1,0,0.2-0.1,0.2-0.2C30.4,37.4,30.4,37.5,30.3,37.6z M30.2,37.8
	C30.2,37.8,30.2,37.7,30.2,37.8c0.1-0.1,0.1-0.1,0.1-0.2C30.2,37.6,30.1,37.7,30.2,37.8z M68,38.4c0.2,0,0.3-0.2,0.3-0.4
	C68.1,38.1,68,38.2,68,38.4z M40.6,39.4L40.6,39.4l-0.1,0.2l0.2,0.1l0-0.2L40.6,39.4z M33.3,11.1c-0.1,0.1-0.2,0.1-0.2,0.2
	C33.3,11.3,33.3,11.2,33.3,11.1z M33.6,10.9l-0.1-0.1l-0.2,0l0,0.2l0.2,0C33.6,11,33.6,11,33.6,10.9z M24.8,45.8L24.8,45.8
	L24.8,45.8L24.8,45.8z M25.4,44.3L25.4,44.3L25.4,44.3L25.4,44.3z M24.6,46.6L24.6,46.6C24.6,46.7,24.6,46.7,24.6,46.6L24.6,46.6
	L24.6,46.6z M25.6,45.3L25.6,45.3L25.6,45.3L25.6,45.3z M24.7,46.2L24.7,46.2L24.7,46.2L24.7,46.2z M30,14L30,14
	c0.1-0.1,0.1-0.1,0.1-0.1C29.9,13.9,29.9,14,30,14z M28.5,41.5L28.5,41.5c0,0.1,0,0.1,0,0.1C28.6,41.6,28.6,41.6,28.5,41.5z M77,30
	l0.1,0.1C77.2,30,77.1,30,77,30z M76.9,30.5c0.1,0,0.1,0,0.1,0C77,30.4,77,30.4,76.9,30.5z M77,29.5L77,29.5c0,0.1,0.1,0.2,0.1,0.2
	l0.2,0l0-0.2L77,29.5L77,29.5z M30.1,13.9c0.1-0.1,0.2-0.2,0.2-0.2C30.2,13.7,30.1,13.7,30.1,13.9z M77.3,29.5l0.4-0.1l0-0.2
	C77.5,29.2,77.4,29.3,77.3,29.5z M69.6,36.3c0.1,0,0.2-0.1,0.2-0.2C69.6,36.2,69.6,36.2,69.6,36.3z M30.8,13.2
	c0.1,0,0.1-0.1,0.2-0.2C30.8,13,30.8,13,30.8,13.2z M30.4,13.4c0.2,0,0.4-0.1,0.4-0.3C30.6,13.2,30.5,13.3,30.4,13.4z M30.2,13.7
	c0.1,0,0.2-0.1,0.2-0.2C30.3,13.4,30.3,13.5,30.2,13.7z"/>
</svg>
