<?xml version="1.0" encoding="utf-8"?>
<!-- Generator: Adobe Illustrator 22.1.0, SVG Export Plug-In . SVG Version: 6.00 Build 0)  -->
<svg version="1.1" id="Layer_1" xmlns="http://www.w3.org/2000/svg" xmlns:xlink="http://www.w3.org/1999/xlink" x="0px" y="0px"
	 width="100px" height="86px" viewBox="0 0 100 86" style="enable-background:new 0 0 100 86;" xml:space="preserve">
<style type="text/css">
	.st0{fill:#FFFFFF;}
</style>
<path class="st0" d="M50,11.3h0.8v0c12-0.2,18-2.6,24-4.9C81,4,87.4,1.5,100,1.5V0.8c-12.8,0-19.2,2.5-25.5,4.9
	C68.4,8,62.3,10.4,50,10.5C38,10.4,31.6,8,25.5,5.7C19.3,3.3,12.8,0.8,0,0.8v0.7c12.6,0,19,2.5,25.2,4.8c6,2.3,12.2,4.7,24,4.9v0
	C49.5,11.3,49.7,11.3,50,11.3L50,11.3z M100,86V59.9c-12.8,0-19.2,2.5-25.5,4.9c-6.1,2.3-12.2,4.7-24.5,4.8
	c-12.1-0.1-18.5-2.5-24.5-4.8c-6.3-2.4-12.7-4.9-25.5-4.9V86C12.6,86,87.4,86,100,86z M100,43.3V49h0c-12.1,0-18.3,2.4-24.3,4.6
	l-0.6,0.2c-5.6,2.1-11.3,4.4-21.9,4.8v0.1l-2.5,0H50c-0.1,0-0.2,0-0.3,0c-0.2,0-0.3,0-0.5,0h-2.5v-0.1c-10.6-0.5-16.5-2.7-22.3-4.9
	l-0.1-0.1C18.3,51.4,12.1,49,0,49v-5.7c13.3,0,19.9,2.6,26.4,5.1c5.9,2.3,12,4.6,23.7,4.7c11.6-0.1,17.3-2.3,23.3-4.6l0.4-0.2
	C80.2,45.8,86.8,43.3,100,43.3L100,43.3z M100,28.3v4.1h0c-12.2,0-18.5,2.4-24.6,4.7l-0.6,0.2c-5.7,2.2-11.5,4.4-22.4,4.8v0l-1.7,0
	H50c-0.1,0-0.2,0-0.3,0c-0.2,0-0.3,0-0.5,0h-1.7V42c-10.9-0.4-17-2.7-22.8-4.9l-0.1-0.1c-6.1-2.3-12.3-4.7-24.6-4.7v-4.1
	c13.1,0,19.7,2.5,26.1,5c6,2.3,12.1,4.6,24,4.7c11.8-0.1,17.8-2.4,23.6-4.6l0.4-0.2C80.4,30.8,87,28.3,100,28.3L100,28.3z M100,14.1
	v2.4h0c-12.4,0-18.7,2.4-24.8,4.7l-0.6,0.2c-5.7,2.2-11.7,4.5-23,4.7v0l-0.8,0H50c-0.1,0-0.2,0-0.3,0c-0.1,0-0.3,0-0.4,0h-0.8v0
	C37.1,26,31,23.6,25,21.4l-0.1-0.1c-6.1-2.4-12.5-4.8-24.9-4.8v-2.4c13,0,19.5,2.5,25.8,4.9c6,2.3,12.2,4.7,24.3,4.8
	c12-0.1,18-2.4,23.9-4.7l0.4-0.2C80.6,16.6,87.1,14.1,100,14.1L100,14.1z"/>
</svg>
